<svg xmlns="http://www.w3.org/2000/svg" viewBox="0 0 560 520"><defs><linearGradient id="tiShade" x1="0" y1="0" x2="1" y2="0"><stop stop-color="#8b9d80"/><stop offset=".48" stop-color="#698671"/><stop offset=".52" stop-color="#54745f"/><stop offset="1" stop-color="#90a18b"/></linearGradient><g id="ti"><path d="M0 0 C-50 -58 -60 -172 -7 -268 C35 -215 65 -106 0 0Z" fill="url(#tiShade)"/><path d="M0 14 Q7 -125 -7 -264" fill="none" stroke="#b1bea0" stroke-width="1.8"/><g fill="none" stroke="#bed0ab" stroke-width=".6" opacity=".55"><path d="M1 -42 Q-23 -86 -29 -140 M3 -67 Q32 -117 22 -184 M2 -102 Q-21 -143 -18 -200 M1 -134 Q15 -175 -1 -226"/></g></g><g id="splitLeaf">
<defs><linearGradient id="leaf" x1="0" y1="0" x2="1" y2="1"><stop stop-color="#81977b"/><stop offset=".55" stop-color="#456b58"/><stop offset="1" stop-color="#2c5146"/></linearGradient>
<mask id="cuts"><rect width="300" height="340" fill="white"/>
<g fill="black"><path d="M24 109 Q72 118 115 157 Q81 145 16 128Z"/><path d="M17 158 Q66 166 111 192 Q63 189 15 178Z"/><path d="M31 207 Q79 210 119 227 Q88 235 38 225Z"/><path d="M60 249 Q102 244 136 255 Q106 267 74 268Z"/>
<path d="M281 103 Q226 113 179 152 Q224 138 288 119Z"/><path d="M291 154 Q242 159 190 187 Q242 181 294 174Z"/><path d="M279 206 Q239 201 188 219 Q232 231 271 222Z"/><path d="M250 248 Q218 237 174 249 Q203 266 239 265Z"/>
<ellipse cx="114" cy="113" rx="8" ry="22" transform="rotate(-28 114 113)"/><ellipse cx="188" cy="110" rx="8" ry="22" transform="rotate(28 188 110)"/><ellipse cx="126" cy="181" rx="6" ry="18" transform="rotate(-30 126 181)"/><ellipse cx="174" cy="178" rx="6" ry="18" transform="rotate(30 174 178)"/>
</g></mask></defs>
<path d="M150 329 Q155 290 151 251" stroke="#466b56" stroke-width="5" fill="none" stroke-linecap="round"/>
<path d="M150 70 C136 35 97 17 66 38 C13 67 7 124 22 181 C37 242 94 286 151 299 C201 283 263 246 281 185 C300 127 286 66 238 39 C202 17 167 38 150 70Z" fill="url(#leaf)" mask="url(#cuts)"/>
<g fill="none" stroke="#a6b69a" stroke-linecap="round"><path d="M150 74 Q155 170 151 287" stroke-width="2" opacity=".65"/><path d="M148 149 Q124 102 84 71 M153 144 Q177 97 225 66 M149 209 Q99 180 49 173 M153 209 Q206 182 258 171 M151 255 Q109 236 82 225 M154 255 Q192 239 224 225" stroke-width="1.2" opacity=".35"/></g></g></defs>
<g opacity=".7" transform="translate(325 354) rotate(46)"><use href="#ti"/></g>
<g opacity=".64" transform="translate(365 426) rotate(76) scale(.86)"><use href="#ti"/></g>
<g opacity=".76" transform="translate(293 337) rotate(-22) scale(.95)"><use href="#ti"/></g>
<g opacity=".92" transform="translate(32 54) rotate(-19 150 160) scale(.93)"><use href="#splitLeaf"/></g>
<g opacity=".67" transform="translate(276 232) rotate(26 105 115) scale(.68)"><use href="#splitLeaf"/></g>
<path d="M318 498 Q301 385 200 243 M316 487 Q371 455 381 376" fill="none" stroke="#718b70" stroke-width="2" opacity=".5"/>
</svg>